# xmcd
#
# Track frame offsets:
# 180
# 18003
# 29928
# 47518
# 65782
# 79548
# 97229
# 111395
# 129452
# 148974
# 163929
# 179428
# 185123
# 197580
# 214999
#
# Disc length: 3020 seconds
#
#
# Revision: 0
# Processed by: cddbd v1.5.1PL2 Copyright (c) Steve Scherf et al.
# Submitted via: FreeRIP 2.944 
#
DISCID=eb0bca0f
DTITLE=The Chosen Few - Don't
DYEAR=1997
DGENRE=Country
TTITLE0=Try A Little Harder
TTITLE1=It's Gonna Get Tough
TTITLE2=You Better
TTITLE3=Don't
TTITLE4=Will You Would You
TTITLE5=Color Of Your Smile
TTITLE6=Why
TTITLE7=Twist And Turn
TTITLE8=Obsession
TTITLE9=Everything Is Different
TTITLE10=My Wish
TTITLE11=Sooner Or Later
TTITLE12=Girl
TTITLE13=Jessy
TTITLE14=It's Time For Me To Go
EXTD=Chosen Few Musikproduktion
EXTT0=
EXTT1=
EXTT2=
EXTT3=
EXTT4=
EXTT5=
EXTT6=
EXTT7=
EXTT8=
EXTT9=
EXTT10=
EXTT11=
EXTT12=
EXTT13=
EXTT14=
PLAYORDER=
